<svg xmlns="http://www.w3.org/2000/svg" xmlns:xlink="http://www.w3.org/1999/xlink" width="400" zoomAndPan="magnify" viewBox="0 0 300 149.999998" height="200" preserveAspectRatio="xMidYMid meet" version="1.0"><defs><g/><clipPath id="54168bb486"><path d="M 227 64 L 290 64 L 290 133.265625 L 227 133.265625 Z M 227 64 " clip-rule="nonzero"/></clipPath><clipPath id="d82d0baf75"><path d="M 275.679688 93.5625 C 270.546875 97.886719 264.277344 100.621094 258.050781 103.128906 C 251.824219 105.636719 245.457031 108.003906 239.890625 111.765625 C 239.84375 111.796875 239.800781 111.820312 239.757812 111.851562 C 233.121094 116.371094 228.882812 123.644531 228.09375 131.632812 C 228.042969 132.171875 228 132.714844 227.953125 133.265625 C 229.523438 126.734375 234.320312 121.363281 239.890625 117.601562 C 245.457031 113.839844 251.8125 111.472656 258.050781 108.964844 C 264.277344 106.457031 270.546875 103.734375 275.679688 99.398438 C 285.527344 91.109375 290.035156 77.597656 289.222656 64.726562 C 288.542969 75.707031 284.046875 86.515625 275.679688 93.5625 Z M 275.679688 93.5625 " clip-rule="nonzero"/></clipPath><linearGradient x1="10163.4121" gradientTransform="matrix(-0.108097, 0, 0, 0.108089, 1357.27366, 3.514437)" y1="566.300032" x2="10163.4121" gradientUnits="userSpaceOnUse" y2="1200.400065" id="8dd13cce3d"><stop stop-opacity="1" stop-color="rgb(48.721313%, 69.320679%, 25.326538%)" offset="0"/><stop stop-opacity="1" stop-color="rgb(48.571777%, 69.146729%, 25.312805%)" offset="0.25"/><stop stop-opacity="1" stop-color="rgb(48.271179%, 68.798828%, 25.285339%)" offset="0.5"/><stop stop-opacity="1" stop-color="rgb(47.972107%, 68.449402%, 25.257874%)" offset="0.75"/><stop stop-opacity="1" stop-color="rgb(47.673035%, 68.101501%, 25.230408%)" offset="1"/></linearGradient><clipPath id="c94c05d33c"><path d="M 224 24 L 284 24 L 284 123 L 224 123 Z M 224 24 " clip-rule="nonzero"/></clipPath><clipPath id="9ac151b62d"><path d="M 283.269531 57.773438 C 282.132812 45.464844 276.273438 33.964844 268.621094 24.257812 C 271.117188 31.421875 267.550781 39.519531 262.09375 44.804688 C 256.644531 50.089844 249.5625 53.277344 242.9375 56.976562 C 236.3125 60.671875 229.71875 65.277344 226.421875 72.109375 C 223.890625 77.351562 223.578125 83.445312 224.484375 89.195312 C 225.078125 92.992188 226.171875 96.675781 227.4375 100.320312 C 229.21875 95.964844 231.621094 91.867188 234.570312 88.191406 C 240.625 80.65625 248.253906 74.484375 256.082031 68.800781 C 271.042969 57.925781 272.035156 53.460938 272.363281 45.386719 C 273.875 51.9375 270.589844 58.769531 265.984375 63.664062 C 261.378906 68.5625 255.53125 72.097656 250.351562 76.386719 C 236.644531 87.757812 227.835938 104.835938 226.515625 122.597656 C 227.976562 116.542969 232.417969 111.550781 237.585938 108.070312 C 242.753906 104.578125 248.65625 102.382812 254.429688 100.058594 C 260.210938 97.734375 266.027344 95.207031 270.78125 91.183594 C 280.253906 83.230469 284.394531 70.085938 283.269531 57.773438 Z M 283.269531 57.773438 " clip-rule="nonzero"/></clipPath><linearGradient x1="10208.751" gradientTransform="matrix(-0.108097, 0, 0, 0.108089, 1357.27366, 3.514437)" y1="191.90003" x2="10208.751" gradientUnits="userSpaceOnUse" y2="1101.699994" id="905744b4b1"><stop stop-opacity="1" stop-color="rgb(49.429321%, 70.141602%, 25.392151%)" offset="0"/><stop stop-opacity="1" stop-color="rgb(49.320984%, 70.016479%, 25.38147%)" offset="0.125"/><stop stop-opacity="1" stop-color="rgb(49.105835%, 69.767761%, 25.361633%)" offset="0.25"/><stop stop-opacity="1" stop-color="rgb(48.890686%, 69.517517%, 25.341797%)" offset="0.375"/><stop stop-opacity="1" stop-color="rgb(48.675537%, 69.268799%, 25.32196%)" offset="0.5"/><stop stop-opacity="1" stop-color="rgb(48.460388%, 69.018555%, 25.302124%)" offset="0.625"/><stop stop-opacity="1" stop-color="rgb(48.246765%, 68.768311%, 25.282288%)" offset="0.75"/><stop stop-opacity="1" stop-color="rgb(48.031616%, 68.519592%, 25.262451%)" offset="0.875"/><stop stop-opacity="1" stop-color="rgb(47.816467%, 68.269348%, 25.242615%)" offset="1"/></linearGradient><clipPath id="6c8d80c6e9"><path d="M 197 3.515625 L 248 3.515625 L 248 83 L 197 83 Z M 197 3.515625 " clip-rule="nonzero"/></clipPath></defs><g clip-path="url(#54168bb486)"><g clip-path="url(#d82d0baf75)"><path fill="url(#8dd13cce3d)" d="M 290.035156 64.726562 L 290.035156 133.265625 L 227.953125 133.265625 L 227.953125 64.726562 Z M 290.035156 64.726562 " fill-rule="nonzero"/></g></g><g clip-path="url(#c94c05d33c)"><g clip-path="url(#9ac151b62d)"><path fill="url(#905744b4b1)" d="M 284.394531 24.257812 L 284.394531 122.597656 L 223.578125 122.597656 L 223.578125 24.257812 Z M 284.394531 24.257812 " fill-rule="nonzero"/></g></g><g clip-path="url(#6c8d80c6e9)"><path fill="#009444" d="M 223.144531 69.046875 C 224.65625 65.902344 226.875 63.234375 229.46875 60.910156 C 228.839844 60.035156 228.203125 59.167969 227.535156 58.316406 C 223.371094 53.03125 218.398438 48.359375 214.917969 42.597656 C 211.449219 36.839844 209.652344 29.476562 212.519531 23.390625 C 211.320312 32.882812 213.003906 36.804688 223.535156 49.691406 C 226.140625 52.890625 228.820312 56.054688 231.371094 59.308594 C 233.953125 57.265625 236.808594 55.503906 239.671875 53.917969 C 242.191406 52.511719 244.773438 51.183594 247.304688 49.777344 C 244.914062 46.5 241.921875 43.570312 238.863281 40.890625 C 233.15625 35.886719 226.90625 31.28125 222.691406 24.96875 C 218.464844 18.65625 216.667969 10 220.613281 3.515625 C 211.089844 11.394531 202.953125 21.402344 199.265625 33.207031 C 195.578125 45.011719 196.867188 58.726562 204.445312 68.496094 C 208.257812 73.414062 213.414062 77.113281 218.582031 80.601562 C 219.316406 81.101562 220.054688 81.597656 220.789062 82.085938 C 220.570312 77.597656 221.210938 73.082031 223.144531 69.046875 Z M 223.144531 69.046875 " fill-opacity="1" fill-rule="nonzero"/></g><g fill="#000000" fill-opacity="1"><g transform="translate(17.443073, 120.368805)"><g><path d="M 34.359375 -27.71875 C 33.742188 -29.613281 32.5625 -31.21875 30.8125 -32.53125 C 29.070312 -33.875 27.019531 -34.804688 24.65625 -35.328125 C 22.300781 -35.835938 19.9375 -35.828125 17.5625 -35.296875 C 15.175781 -34.773438 13.054688 -33.554688 11.203125 -31.640625 C 9.203125 -29.453125 7.992188 -26.988281 7.578125 -24.25 C 7.160156 -21.488281 7.4375 -18.878906 8.40625 -16.421875 C 9.375 -13.890625 10.953125 -11.804688 13.140625 -10.171875 C 15.285156 -8.523438 17.945312 -7.671875 21.125 -7.609375 C 23.65625 -7.609375 25.78125 -8.1875 27.5 -9.34375 C 29.269531 -10.519531 30.503906 -12.300781 31.203125 -14.6875 L 21 -14.6875 C 19.0625 -14.789062 17.617188 -15.554688 16.671875 -16.984375 C 15.722656 -18.460938 15.3125 -20.148438 15.4375 -22.046875 L 39.34375 -22.046875 C 39.675781 -17.285156 38.941406 -13.242188 37.140625 -9.921875 C 35.304688 -6.648438 32.875 -4.175781 29.84375 -2.5 C 26.769531 -0.8125 23.546875 0.0078125 20.171875 -0.03125 C 16.722656 -0.09375 13.441406 -1.019531 10.328125 -2.8125 C 7.234375 -4.582031 4.71875 -7.253906 2.78125 -10.828125 C 0.632812 -15.015625 -0.257812 -19.300781 0.09375 -23.6875 C 0.46875 -28.039062 1.890625 -31.921875 4.359375 -35.328125 C 6.191406 -37.796875 8.453125 -39.742188 11.140625 -41.171875 C 13.921875 -42.628906 17.082031 -43.367188 20.625 -43.390625 C 23.289062 -43.390625 25.796875 -42.976562 28.140625 -42.15625 C 30.429688 -41.375 32.359375 -40.257812 33.921875 -38.8125 C 35.429688 -37.394531 36.28125 -35.742188 36.46875 -33.859375 C 36.675781 -31.984375 35.972656 -29.9375 34.359375 -27.71875 Z M 34.359375 -27.71875 "/></g></g></g><g fill="#000000" fill-opacity="1"><g transform="translate(57.070272, 120.368805)"><g><path d="M 15.71875 -41.53125 C 18.96875 -41.46875 21.5625 -40.632812 23.5 -39.03125 C 25.457031 -37.40625 26.789062 -35.363281 27.5 -32.90625 C 27.882812 -31.644531 28.117188 -30.375 28.203125 -29.09375 C 28.285156 -27.820312 28.242188 -26.515625 28.078125 -25.171875 C 27.691406 -22.492188 26.804688 -20.082031 25.421875 -17.9375 C 24.054688 -15.769531 22.203125 -14.179688 19.859375 -13.171875 L 29.5 0 L 20.53125 0 L 9.828125 -14.59375 C 9.046875 -15.75 8.6875 -16.976562 8.75 -18.28125 C 8.789062 -18.957031 8.898438 -19.578125 9.078125 -20.140625 C 9.253906 -20.710938 9.503906 -21.257812 9.828125 -21.78125 C 10.097656 -21.21875 10.632812 -20.8125 11.4375 -20.5625 C 12.1875 -20.300781 13.003906 -20.140625 13.890625 -20.078125 C 14.773438 -20.054688 15.515625 -20.085938 16.109375 -20.171875 C 17.597656 -20.515625 18.753906 -21.390625 19.578125 -22.796875 C 20.398438 -24.210938 20.8125 -25.757812 20.8125 -27.4375 C 20.8125 -29.101562 20.328125 -30.578125 19.359375 -31.859375 C 18.367188 -33.097656 16.820312 -33.75 14.71875 -33.8125 L 8.5 -33.8125 L 8.5 0 L 1.171875 0 L 1.171875 -34.234375 C 1.171875 -36.441406 1.632812 -38.195312 2.5625 -39.5 C 3.507812 -40.8125 5.085938 -41.488281 7.296875 -41.53125 Z M 15.71875 -41.53125 "/></g></g></g><g fill="#000000" fill-opacity="1"><g transform="translate(87.698465, 120.368805)"><g><path d="M 19.953125 -43.265625 C 22.628906 -43.265625 25.144531 -42.738281 27.5 -41.6875 C 29.820312 -40.613281 31.960938 -39.023438 33.921875 -36.921875 C 37.785156 -32.722656 39.71875 -27.582031 39.71875 -21.5 C 39.71875 -18.488281 39.242188 -15.722656 38.296875 -13.203125 C 37.359375 -10.628906 35.929688 -8.3125 34.015625 -6.25 C 32.097656 -4.164062 29.96875 -2.609375 27.625 -1.578125 C 25.3125 -0.546875 22.773438 -0.03125 20.015625 -0.03125 C 17.171875 -0.03125 14.539062 -0.554688 12.125 -1.609375 C 9.726562 -2.679688 7.582031 -4.289062 5.6875 -6.4375 C 3.789062 -8.539062 2.367188 -10.878906 1.421875 -13.453125 C 0.472656 -15.972656 0 -18.707031 0 -21.65625 C 0 -22.269531 0.03125 -22.914062 0.09375 -23.59375 C 0.15625 -24.28125 0.238281 -25.003906 0.34375 -25.765625 C 0.570312 -27.304688 0.960938 -28.675781 1.515625 -29.875 C 2.460938 -31.789062 3.820312 -33.148438 5.59375 -33.953125 C 7.332031 -34.722656 9.117188 -34.953125 10.953125 -34.640625 C 12.765625 -34.328125 14.175781 -33.484375 15.1875 -32.109375 C 16.238281 -30.703125 16.503906 -28.8125 15.984375 -26.4375 C 14.992188 -27.65625 13.8125 -28.265625 12.4375 -28.265625 C 11.070312 -28.265625 9.882812 -27.632812 8.875 -26.375 C 7.863281 -25.082031 7.367188 -23.164062 7.390625 -20.625 C 7.492188 -18.519531 7.914062 -16.65625 8.65625 -15.03125 C 9.363281 -13.40625 10.445312 -11.960938 11.90625 -10.703125 C 13.082031 -9.648438 14.332031 -8.863281 15.65625 -8.34375 C 17.070312 -7.8125 18.523438 -7.546875 20.015625 -7.546875 C 21.703125 -7.546875 23.28125 -7.882812 24.75 -8.5625 C 26.25 -9.269531 27.585938 -10.28125 28.765625 -11.59375 C 29.378906 -12.257812 29.910156 -12.972656 30.359375 -13.734375 C 30.816406 -14.492188 31.203125 -15.285156 31.515625 -16.109375 C 32.109375 -17.722656 32.40625 -19.539062 32.40625 -21.5625 C 32.40625 -25.5 31.191406 -28.816406 28.765625 -31.515625 C 27.523438 -32.859375 26.164062 -33.867188 24.6875 -34.546875 C 23.257812 -35.222656 21.648438 -35.5625 19.859375 -35.5625 C 19.035156 -35.5625 18.269531 -35.5 17.5625 -35.375 C 16.84375 -35.238281 16.132812 -35.046875 15.4375 -34.796875 C 14.050781 -36.078125 12.316406 -36.773438 10.234375 -36.890625 C 8.171875 -36.953125 6.210938 -36.390625 4.359375 -35.203125 C 5.867188 -37.242188 7.722656 -38.960938 9.921875 -40.359375 C 11.472656 -41.328125 13.09375 -42.0625 14.78125 -42.5625 C 16.414062 -43.03125 18.140625 -43.265625 19.953125 -43.265625 Z M 19.953125 -43.265625 "/></g></g></g><g fill="#000000" fill-opacity="1"><g transform="translate(127.325664, 120.368805)"><g><path d="M 7.859375 -41.4375 L 13.421875 -14.96875 L 18.4375 -34.234375 C 18.738281 -35.429688 19.117188 -36.476562 19.578125 -37.375 C 20.035156 -38.269531 20.570312 -39.039062 21.1875 -39.6875 C 22.445312 -40.976562 24.175781 -41.5625 26.375 -41.4375 L 33.375 -14.96875 L 37.390625 -34.296875 C 37.910156 -36.859375 38.867188 -38.773438 40.265625 -40.046875 C 41.609375 -41.285156 43.554688 -41.75 46.109375 -41.4375 L 37.328125 0 L 30.34375 0 L 23.265625 -26.75 L 16.359375 0 L 9.40625 0 L 0.625 -41.4375 Z M 7.859375 -41.4375 "/></g></g></g><g fill="#000000" fill-opacity="1"><g transform="translate(173.867888, 120.368805)"><g><path d="M 1.234375 0 L 1.234375 -35.296875 C 1.253906 -37.253906 1.914062 -38.796875 3.21875 -39.921875 C 4.5 -41.015625 6.257812 -41.550781 8.5 -41.53125 L 8.5 0 Z M 1.234375 0 "/></g></g></g><g fill="#000000" fill-opacity="1"><g transform="translate(183.151073, 120.368805)"><g><path d="M 19.953125 -43.265625 C 22.628906 -43.265625 25.144531 -42.738281 27.5 -41.6875 C 29.820312 -40.613281 31.960938 -39.023438 33.921875 -36.921875 C 37.785156 -32.722656 39.71875 -27.582031 39.71875 -21.5 C 39.71875 -18.488281 39.242188 -15.722656 38.296875 -13.203125 C 37.359375 -10.628906 35.929688 -8.3125 34.015625 -6.25 C 32.097656 -4.164062 29.96875 -2.609375 27.625 -1.578125 C 25.3125 -0.546875 22.773438 -0.03125 20.015625 -0.03125 C 17.171875 -0.03125 14.539062 -0.554688 12.125 -1.609375 C 9.726562 -2.679688 7.582031 -4.289062 5.6875 -6.4375 C 3.789062 -8.539062 2.367188 -10.878906 1.421875 -13.453125 C 0.472656 -15.972656 0 -18.707031 0 -21.65625 C 0 -22.269531 0.03125 -22.914062 0.09375 -23.59375 C 0.15625 -24.28125 0.238281 -25.003906 0.34375 -25.765625 C 0.570312 -27.304688 0.960938 -28.675781 1.515625 -29.875 C 2.460938 -31.789062 3.820312 -33.148438 5.59375 -33.953125 C 7.332031 -34.722656 9.117188 -34.953125 10.953125 -34.640625 C 12.765625 -34.328125 14.175781 -33.484375 15.1875 -32.109375 C 16.238281 -30.703125 16.503906 -28.8125 15.984375 -26.4375 C 14.992188 -27.65625 13.8125 -28.265625 12.4375 -28.265625 C 11.070312 -28.265625 9.882812 -27.632812 8.875 -26.375 C 7.863281 -25.082031 7.367188 -23.164062 7.390625 -20.625 C 7.492188 -18.519531 7.914062 -16.65625 8.65625 -15.03125 C 9.363281 -13.40625 10.445312 -11.960938 11.90625 -10.703125 C 13.082031 -9.648438 14.332031 -8.863281 15.65625 -8.34375 C 17.070312 -7.8125 18.523438 -7.546875 20.015625 -7.546875 C 21.703125 -7.546875 23.28125 -7.882812 24.75 -8.5625 C 26.25 -9.269531 27.585938 -10.28125 28.765625 -11.59375 C 29.378906 -12.257812 29.910156 -12.972656 30.359375 -13.734375 C 30.816406 -14.492188 31.203125 -15.285156 31.515625 -16.109375 C 32.109375 -17.722656 32.40625 -19.539062 32.40625 -21.5625 C 32.40625 -25.5 31.191406 -28.816406 28.765625 -31.515625 C 27.523438 -32.859375 26.164062 -33.867188 24.6875 -34.546875 C 23.257812 -35.222656 21.648438 -35.5625 19.859375 -35.5625 C 19.035156 -35.5625 18.269531 -35.5 17.5625 -35.375 C 16.84375 -35.238281 16.132812 -35.046875 15.4375 -34.796875 C 14.050781 -36.078125 12.316406 -36.773438 10.234375 -36.890625 C 8.171875 -36.953125 6.210938 -36.390625 4.359375 -35.203125 C 5.867188 -37.242188 7.722656 -38.960938 9.921875 -40.359375 C 11.472656 -41.328125 13.09375 -42.0625 14.78125 -42.5625 C 16.414062 -43.03125 18.140625 -43.265625 19.953125 -43.265625 Z M 19.953125 -43.265625 "/></g></g></g><g fill="#000000" fill-opacity="1"><g transform="translate(17.231346, 134.332846)"><g><path d="M 3.015625 0 L 2.171875 0 L 2.171875 -5.90625 L 0.09375 -5.90625 L 0.09375 -6.65625 L 5.078125 -6.65625 L 5.078125 -5.90625 L 3.015625 -5.90625 Z M 3.015625 0 "/></g></g></g><g fill="#000000" fill-opacity="1"><g transform="translate(29.422199, 134.332846)"><g><path d="M 5.953125 -6.65625 L 5.953125 -2.34375 C 5.953125 -1.882812 5.859375 -1.46875 5.671875 -1.09375 C 5.492188 -0.726562 5.210938 -0.4375 4.828125 -0.21875 C 4.441406 -0.0078125 3.957031 0.09375 3.375 0.09375 C 2.539062 0.09375 1.910156 -0.128906 1.484375 -0.578125 C 1.054688 -1.023438 0.84375 -1.617188 0.84375 -2.359375 L 0.84375 -6.65625 L 1.671875 -6.65625 L 1.671875 -2.34375 C 1.671875 -1.800781 1.816406 -1.378906 2.109375 -1.078125 C 2.398438 -0.785156 2.835938 -0.640625 3.421875 -0.640625 C 4.023438 -0.640625 4.457031 -0.796875 4.71875 -1.109375 C 4.988281 -1.429688 5.125 -1.84375 5.125 -2.34375 L 5.125 -6.65625 Z M 5.953125 -6.65625 "/></g></g></g><g fill="#000000" fill-opacity="1"><g transform="translate(43.240824, 134.332846)"><g><path d="M 3.84375 0 L 1.640625 -5.828125 L 1.609375 -5.828125 C 1.628906 -5.640625 1.644531 -5.378906 1.65625 -5.046875 C 1.664062 -4.722656 1.671875 -4.382812 1.671875 -4.03125 L 1.671875 0 L 0.90625 0 L 0.90625 -6.65625 L 2.140625 -6.65625 L 4.1875 -1.203125 L 4.234375 -1.203125 L 6.3125 -6.65625 L 7.546875 -6.65625 L 7.546875 0 L 6.71875 0 L 6.71875 -4.09375 C 6.71875 -4.414062 6.722656 -4.734375 6.734375 -5.046875 C 6.753906 -5.359375 6.769531 -5.613281 6.78125 -5.8125 L 6.734375 -5.8125 L 4.53125 0 Z M 3.84375 0 "/></g></g></g><g fill="#000000" fill-opacity="1"><g transform="translate(58.696515, 134.332846)"><g><path d="M 0.90625 -6.65625 L 2.796875 -6.65625 C 3.628906 -6.65625 4.257812 -6.53125 4.6875 -6.28125 C 5.113281 -6.03125 5.328125 -5.601562 5.328125 -5 C 5.328125 -4.613281 5.21875 -4.289062 5 -4.03125 C 4.78125 -3.769531 4.46875 -3.601562 4.0625 -3.53125 L 4.0625 -3.484375 C 4.34375 -3.429688 4.59375 -3.34375 4.8125 -3.21875 C 5.039062 -3.101562 5.21875 -2.9375 5.34375 -2.71875 C 5.476562 -2.507812 5.546875 -2.234375 5.546875 -1.890625 C 5.546875 -1.285156 5.335938 -0.816406 4.921875 -0.484375 C 4.515625 -0.160156 3.953125 0 3.234375 0 L 0.90625 0 Z M 1.734375 -3.8125 L 2.96875 -3.8125 C 3.53125 -3.8125 3.914062 -3.90625 4.125 -4.09375 C 4.34375 -4.28125 4.453125 -4.550781 4.453125 -4.90625 C 4.453125 -5.269531 4.320312 -5.53125 4.0625 -5.6875 C 3.8125 -5.851562 3.40625 -5.9375 2.84375 -5.9375 L 1.734375 -5.9375 Z M 1.734375 -3.125 L 1.734375 -0.703125 L 3.078125 -0.703125 C 3.671875 -0.703125 4.082031 -0.816406 4.3125 -1.046875 C 4.539062 -1.273438 4.65625 -1.578125 4.65625 -1.953125 C 4.65625 -2.304688 4.535156 -2.585938 4.296875 -2.796875 C 4.054688 -3.015625 3.628906 -3.125 3.015625 -3.125 Z M 1.734375 -3.125 "/></g></g></g><g fill="#000000" fill-opacity="1"><g transform="translate(71.761708, 134.332846)"><g><path d="M 5.953125 -6.65625 L 5.953125 -2.34375 C 5.953125 -1.882812 5.859375 -1.46875 5.671875 -1.09375 C 5.492188 -0.726562 5.210938 -0.4375 4.828125 -0.21875 C 4.441406 -0.0078125 3.957031 0.09375 3.375 0.09375 C 2.539062 0.09375 1.910156 -0.128906 1.484375 -0.578125 C 1.054688 -1.023438 0.84375 -1.617188 0.84375 -2.359375 L 0.84375 -6.65625 L 1.671875 -6.65625 L 1.671875 -2.34375 C 1.671875 -1.800781 1.816406 -1.378906 2.109375 -1.078125 C 2.398438 -0.785156 2.835938 -0.640625 3.421875 -0.640625 C 4.023438 -0.640625 4.457031 -0.796875 4.71875 -1.109375 C 4.988281 -1.429688 5.125 -1.84375 5.125 -2.34375 L 5.125 -6.65625 Z M 5.953125 -6.65625 "/></g></g></g><g fill="#000000" fill-opacity="1"><g transform="translate(85.580334, 134.332846)"><g><path d="M 5.984375 0 L 5.15625 0 L 5.15625 -3.09375 L 1.734375 -3.09375 L 1.734375 0 L 0.90625 0 L 0.90625 -6.65625 L 1.734375 -6.65625 L 1.734375 -3.84375 L 5.15625 -3.84375 L 5.15625 -6.65625 L 5.984375 -6.65625 Z M 5.984375 0 "/></g></g></g><g fill="#000000" fill-opacity="1"><g transform="translate(99.49197, 134.332846)"><g/></g></g><g fill="#000000" fill-opacity="1"><g transform="translate(109.644974, 134.332846)"><g><path d="M 0.90625 0 L 0.90625 -6.65625 L 1.734375 -6.65625 L 1.734375 -0.75 L 4.640625 -0.75 L 4.640625 0 Z M 0.90625 0 "/></g></g></g><g fill="#000000" fill-opacity="1"><g transform="translate(121.538178, 134.332846)"><g><path d="M 4.625 0 L 0.90625 0 L 0.90625 -6.65625 L 4.625 -6.65625 L 4.625 -5.90625 L 1.734375 -5.90625 L 1.734375 -3.84375 L 4.453125 -3.84375 L 4.453125 -3.109375 L 1.734375 -3.109375 L 1.734375 -0.734375 L 4.625 -0.734375 Z M 4.625 0 "/></g></g></g><g fill="#000000" fill-opacity="1"><g transform="translate(133.729031, 134.332846)"><g><path d="M 0.90625 -6.65625 L 2.796875 -6.65625 C 3.628906 -6.65625 4.257812 -6.53125 4.6875 -6.28125 C 5.113281 -6.03125 5.328125 -5.601562 5.328125 -5 C 5.328125 -4.613281 5.21875 -4.289062 5 -4.03125 C 4.78125 -3.769531 4.46875 -3.601562 4.0625 -3.53125 L 4.0625 -3.484375 C 4.34375 -3.429688 4.59375 -3.34375 4.8125 -3.21875 C 5.039062 -3.101562 5.21875 -2.9375 5.34375 -2.71875 C 5.476562 -2.507812 5.546875 -2.234375 5.546875 -1.890625 C 5.546875 -1.285156 5.335938 -0.816406 4.921875 -0.484375 C 4.515625 -0.160156 3.953125 0 3.234375 0 L 0.90625 0 Z M 1.734375 -3.8125 L 2.96875 -3.8125 C 3.53125 -3.8125 3.914062 -3.90625 4.125 -4.09375 C 4.34375 -4.28125 4.453125 -4.550781 4.453125 -4.90625 C 4.453125 -5.269531 4.320312 -5.53125 4.0625 -5.6875 C 3.8125 -5.851562 3.40625 -5.9375 2.84375 -5.9375 L 1.734375 -5.9375 Z M 1.734375 -3.125 L 1.734375 -0.703125 L 3.078125 -0.703125 C 3.671875 -0.703125 4.082031 -0.816406 4.3125 -1.046875 C 4.539062 -1.273438 4.65625 -1.578125 4.65625 -1.953125 C 4.65625 -2.304688 4.535156 -2.585938 4.296875 -2.796875 C 4.054688 -3.015625 3.628906 -3.125 3.015625 -3.125 Z M 1.734375 -3.125 "/></g></g></g><g fill="#000000" fill-opacity="1"><g transform="translate(146.794224, 134.332846)"><g><path d="M 2.78125 0 L 0.375 0 L 0.375 -0.484375 L 1.15625 -0.65625 L 1.15625 -5.984375 L 0.375 -6.171875 L 0.375 -6.65625 L 2.78125 -6.65625 L 2.78125 -6.171875 L 2 -5.984375 L 2 -0.65625 L 2.78125 -0.484375 Z M 2.78125 0 "/></g></g></g><g fill="#000000" fill-opacity="1"><g transform="translate(156.966645, 134.332846)"><g><path d="M 5.984375 0 L 5.15625 0 L 5.15625 -3.09375 L 1.734375 -3.09375 L 1.734375 0 L 0.90625 0 L 0.90625 -6.65625 L 1.734375 -6.65625 L 1.734375 -3.84375 L 5.15625 -3.84375 L 5.15625 -6.65625 L 5.984375 -6.65625 Z M 5.984375 0 "/></g></g></g><g fill="#000000" fill-opacity="1"><g transform="translate(170.878284, 134.332846)"><g/></g></g><g fill="#000000" fill-opacity="1"><g transform="translate(181.031281, 134.332846)"><g><path d="M 0.90625 -6.65625 L 2.796875 -6.65625 C 3.628906 -6.65625 4.257812 -6.53125 4.6875 -6.28125 C 5.113281 -6.03125 5.328125 -5.601562 5.328125 -5 C 5.328125 -4.613281 5.21875 -4.289062 5 -4.03125 C 4.78125 -3.769531 4.46875 -3.601562 4.0625 -3.53125 L 4.0625 -3.484375 C 4.34375 -3.429688 4.59375 -3.34375 4.8125 -3.21875 C 5.039062 -3.101562 5.21875 -2.9375 5.34375 -2.71875 C 5.476562 -2.507812 5.546875 -2.234375 5.546875 -1.890625 C 5.546875 -1.285156 5.335938 -0.816406 4.921875 -0.484375 C 4.515625 -0.160156 3.953125 0 3.234375 0 L 0.90625 0 Z M 1.734375 -3.8125 L 2.96875 -3.8125 C 3.53125 -3.8125 3.914062 -3.90625 4.125 -4.09375 C 4.34375 -4.28125 4.453125 -4.550781 4.453125 -4.90625 C 4.453125 -5.269531 4.320312 -5.53125 4.0625 -5.6875 C 3.8125 -5.851562 3.40625 -5.9375 2.84375 -5.9375 L 1.734375 -5.9375 Z M 1.734375 -3.125 L 1.734375 -0.703125 L 3.078125 -0.703125 C 3.671875 -0.703125 4.082031 -0.816406 4.3125 -1.046875 C 4.539062 -1.273438 4.65625 -1.578125 4.65625 -1.953125 C 4.65625 -2.304688 4.535156 -2.585938 4.296875 -2.796875 C 4.054688 -3.015625 3.628906 -3.125 3.015625 -3.125 Z M 1.734375 -3.125 "/></g></g></g><g fill="#000000" fill-opacity="1"><g transform="translate(194.096475, 134.332846)"><g><path d="M 5.078125 0 L 4.28125 -2.0625 L 1.640625 -2.0625 L 0.84375 0 L 0 0 L 2.59375 -6.671875 L 3.359375 -6.671875 L 5.9375 0 Z M 4.015625 -2.796875 L 3.28125 -4.8125 C 3.257812 -4.863281 3.226562 -4.953125 3.1875 -5.078125 C 3.144531 -5.210938 3.101562 -5.347656 3.0625 -5.484375 C 3.019531 -5.628906 2.988281 -5.738281 2.96875 -5.8125 C 2.914062 -5.613281 2.863281 -5.421875 2.8125 -5.234375 C 2.757812 -5.054688 2.710938 -4.914062 2.671875 -4.8125 L 1.921875 -2.796875 Z M 4.015625 -2.796875 "/></g></g></g><g fill="#000000" fill-opacity="1"><g transform="translate(207.059355, 134.332846)"><g><path d="M 2.78125 0 L 0.375 0 L 0.375 -0.484375 L 1.15625 -0.65625 L 1.15625 -5.984375 L 0.375 -6.171875 L 0.375 -6.65625 L 2.78125 -6.65625 L 2.78125 -6.171875 L 2 -5.984375 L 2 -0.65625 L 2.78125 -0.484375 Z M 2.78125 0 "/></g></g></g><g fill="#000000" fill-opacity="1"><g transform="translate(217.231775, 134.332846)"><g><path d="M 5.765625 0 L 4.78125 0 L 2.421875 -3.171875 L 1.734375 -2.578125 L 1.734375 0 L 0.90625 0 L 0.90625 -6.65625 L 1.734375 -6.65625 L 1.734375 -3.375 C 1.921875 -3.582031 2.109375 -3.789062 2.296875 -4 C 2.492188 -4.21875 2.691406 -4.429688 2.890625 -4.640625 L 4.6875 -6.65625 L 5.65625 -6.65625 L 3.03125 -3.75 Z M 5.765625 0 "/></g></g></g></svg>